<svg width="600" height="600" xmlns="http://www.w3.org/2000/svg" version="1.0" preserveAspectRatio="xMidYMid meet">
 <g>
  <title>Layer 1</title>
  <g transform="translate(0 600) scale(0.1 -0.1)" fill="#000000" id="svg_1">
   <path stroke="#000" fill="#ffffff" d="m3250,4264c-140,-84 -264,-153 -275,-154c-11,0 -188,55 -393,122c-204,67 -375,118 -379,115c-3,-4 8,-103 25,-220c18,-116 32,-221 32,-233c0,-11 -10,-30 -22,-41c-13,-11 -179,-75 -370,-143l-347,-124l32,-21c18,-11 134,-86 259,-165c260,-165 266,-172 225,-242c-14,-24 -104,-164 -201,-313l-176,-270l346,-5l347,-5l18,-25c11,-15 73,-261 159,-625c78,-330 144,-602 146,-604c2,-2 6,-2 7,0c2,2 169,201 371,442c247,294 376,439 392,443c18,5 112,-30 346,-125c176,-72 323,-129 326,-126c3,2 -9,148 -27,323c-17,175 -29,326 -25,335c3,10 90,79 193,154c102,75 203,150 224,166l38,30l-180,182c-100,99 -181,187 -181,193c0,7 25,123 55,259c30,136 53,248 51,250c-2,2 -117,33 -256,69c-140,36 -260,69 -268,73c-9,5 -61,105 -117,222c-56,117 -106,214 -111,215c-5,1 -124,-67 -264,-152zm5,-328c107,-32 269,-108 354,-165c178,-121 300,-288 317,-434c25,-209 -147,-587 -365,-807c-144,-144 -214,-165 -403,-115c-327,84 -747,312 -873,472c-66,85 -77,141 -50,248c78,303 450,745 695,826c51,17 230,3 325,-25z" id="svg_3"/>
   <path stroke="#000" fill="#ffffff" d="m2965,3848c-167,-62 -476,-430 -579,-690c-45,-115 -34,-165 56,-241c195,-165 687,-397 843,-397c57,0 120,43 205,142c137,159 252,362 291,517c39,154 15,241 -99,362c-110,117 -266,211 -455,274c-113,37 -216,50 -262,33zm266,-224c200,-58 334,-270 299,-473c-16,-94 -51,-163 -116,-232c-210,-219 -565,-157 -698,121c-29,61 -31,73 -31,175c0,105 2,113 34,180c55,112 149,194 266,231c56,18 181,17 246,-2z" id="svg_4"/>
   <path stroke="#000" fill="#ffffff" d="m2997,3515c-84,-32 -163,-112 -192,-195c-19,-54 -19,-155 0,-209c75,-214 339,-284 513,-136c47,40 80,95 98,167c35,137 -30,284 -158,353c-45,24 -66,29 -138,32c-56,2 -98,-2 -123,-12z" id="svg_5"/>
   <path stroke="#000" fill="#ffffff" d="m0,3000l0,-3000l3000,0l3000,0l0,3000l0,3000l-3000,0l-3000,0l0,-3000zm3591,1599c13,-6 65,-103 135,-247c63,-130 116,-237 118,-240c2,-2 126,-34 275,-72c149,-37 278,-74 287,-81c36,-30 35,-42 -27,-316l-60,-268l191,-189c105,-104 195,-198 199,-210c5,-11 5,-31 1,-42c-5,-12 -117,-100 -249,-195c-211,-152 -241,-177 -241,-201c0,-14 16,-180 35,-368c31,-306 33,-345 20,-370c-15,-28 -33,-40 -64,-40c-9,0 -174,63 -366,140c-192,77 -351,140 -352,140c-1,0 -180,-211 -397,-469c-218,-258 -405,-476 -418,-485c-12,-9 -32,-16 -44,-16c-55,0 -55,-2 -220,698l-157,662l-379,0c-371,0 -378,0 -399,21c-15,15 -20,30 -17,53c2,20 77,146 206,346c112,173 204,318 205,323c1,4 -128,92 -288,195c-281,182 -290,189 -293,222c-2,19 3,43 10,52c7,9 190,83 406,164c347,130 392,149 392,168c0,11 -16,132 -37,268c-34,234 -35,248 -19,272c9,14 27,28 40,32c16,4 162,-39 448,-132c232,-75 428,-137 433,-137c6,0 136,75 290,167c154,91 288,166 298,166c10,0 27,-5 38,-11z" id="svg_2"/>
  </g>
 </g>

</svg>